<svg preserveAspectRatio="none" viewBox="0 0 80 383" fill="none" xmlns="http://www.w3.org/2000/svg">
<path d="M29.6044 192.07C29.6044 192.07 39.7988 189.671 48.4052 179.811C57.0116 169.95 62.6388 115.75 67.2288 105.889C71.8188 96.0288 79.3301 96.548 79.3301 96.548" stroke="#10CEA2" stroke-linecap="round" stroke-linejoin="round"/>
<path d="M29.6175 192.07C29.6175 192.07 42.0487 187.657 48.7415 168.992C55.4342 150.327 64.0334 30.8675 64.9888 15.9351C65.9441 1.00265 79.3319 1.00336 79.3319 1.00336" stroke="#10CEA2" stroke-linecap="round" stroke-linejoin="round"/>
<path d="M29.6055 192.07C29.6055 192.07 40.1361 194.761 48.7425 204.661C57.3489 214.56 65.2124 270.089 67.2291 278.582C69.2458 287.076 79.331 287.972 79.331 287.972" stroke="#10CEA2" stroke-linecap="round" stroke-linejoin="round"/>
<path d="M29.5999 192.262C29.5999 192.262 42.0316 196.653 48.726 215.226C55.4204 233.799 64.0299 352.667 64.9866 367.525C65.9433 382.384 79.3311 382.383 79.3311 382.383" stroke="#10CEA2" stroke-linecap="round" stroke-linejoin="round"/>
<line x1="79.5" y1="192.263" x2="0.499982" y2="192.263" stroke="#10CEA2" stroke-linecap="round"/>
</svg>
