<svg preserveAspectRatio="none" viewBox="0 0 608 97" fill="none" xmlns="http://www.w3.org/2000/svg">
<path d="M303.513 22.0338C303.513 22.0338 307.326 37.198 323 50C338.674 62.802 424.827 71.1724 440.5 78C456.173 84.8276 455.348 96.0008 455.348 96.0008" stroke="#10CEA2" stroke-linecap="round" stroke-linejoin="round"/>
<path d="M303.513 22.0503C303.513 22.0503 310.528 40.5418 340.197 50.4973C369.865 60.4528 559.749 73.244 583.484 74.6651C607.22 76.0862 607.218 96.0005 607.218 96.0005" stroke="#10CEA2" stroke-linecap="round" stroke-linejoin="round"/>
<path d="M303.514 22.0335C303.514 22.0335 299.237 37.6979 283.501 50.5C267.765 63.3021 179.502 75 166.001 78C152.5 81 151.076 96.0018 151.076 96.0018" stroke="#10CEA2" stroke-linecap="round" stroke-linejoin="round"/>
<path d="M303.209 22.0334C303.209 22.0334 296.228 40.5253 266.706 50.4826C237.183 60.4399 48.2399 73.2428 24.622 74.6654C1.00404 76.0879 1.00409 96.0023 1.00409 96.0023" stroke="#10CEA2" stroke-linecap="round" stroke-linejoin="round"/>
<line x1="303.5" y1="96.5" x2="303.5" y2="0.499998" stroke="#10CEA2" stroke-linecap="round"/>
</svg>
